<svg xmlns="http://www.w3.org/2000/svg" viewBox="0 0 64 64" role="img" aria-label="FlipCalc icon">
  <rect width="64" height="64" rx="14" fill="#111827"/>
  <rect x="16" y="10" width="32" height="44" rx="6" fill="#f8fafc"/>
  <rect x="21" y="16" width="22" height="8" rx="2" fill="#cbd5e1"/>
  <path fill="#111827" d="M31 47v-4.5c-3.8-.5-6.4-2.5-7.8-5.8l4.3-2.2c1 2.3 2.7 3.5 5.1 3.5 2.2 0 3.4-.8 3.4-2.3 0-1-.5-1.7-1.6-2.2-.7-.3-2.1-.7-4.1-1.2-4.2-1-6.3-3.1-6.3-6.3 0-3.4 2.5-5.9 7-6.5V15h3v4.6c3.2.5 5.4 2.2 6.8 5.1l-4.2 2.2c-.9-1.9-2.3-2.9-4.3-2.9-2 0-3 .8-3 2.2 0 .9.5 1.5 1.4 2 .7.3 2 .7 3.8 1.1 2.5.6 4.3 1.4 5.4 2.4 1.1 1 1.7 2.4 1.7 4.2 0 3.5-2.7 5.8-7.6 6.4V47h-3z"/>
</svg>